<svg xmlns="http://www.w3.org/2000/svg" width="12.375" height="12.38" viewBox="0 0 12.375 12.38"><path d="M6.187 12.37a6.18 6.18 0 1 1 6.18-6.18 6.184 6.184 0 0 1-6.18 6.18M11.4 7.03a7.821 7.821 0 0 0-3.289-.22 22.361 22.361 0 0 1 1.023 3.76A5.271 5.271 0 0 0 11.4 7.03m-3.147 4.03a22.682 22.682 0 0 0-1.13-4.01.038.038 0 0 1-.022.01 7.271 7.271 0 0 0-4.156 3.3 5.267 5.267 0 0 0 5.308.7m-5.99-1.33a8.372 8.372 0 0 1 4.293-3.49c.067-.02.135-.04.209-.06q-.2-.45-.428-.9a19.382 19.382 0 0 1-5.429.76v.16a5.293 5.293 0 0 0 1.357 3.53M1.019 5.12a19.833 19.833 0 0 0 4.885-.65 34.273 34.273 0 0 0-1.959-3.05 5.31 5.31 0 0 0-2.926 3.7m3.932-4.05a26.653 26.653 0 0 1 1.972 3.09 6.037 6.037 0 0 0 2.766-1.91 5.25 5.25 0 0 0-3.5-1.33 5.045 5.045 0 0 0-1.238.15m5.324 1.79a7.053 7.053 0 0 1-2.947 2.08c.123.25.242.51.351.76.039.1.074.19.113.28a12.247 12.247 0 0 1 3.676.17 5.252 5.252 0 0 0-1.193-3.29" fill="#fff" fill-rule="evenodd"/></svg>