<svg xmlns="http://www.w3.org/2000/svg"><defs>
    <style>
      .cls-1 {
        fill: #fff;
        fill-rule: evenodd;
      }
    </style>
  
    <style>
      .cls-1 {
        fill: #fff;
        fill-rule: evenodd;
      }
    </style>
  
    <style>
      .cls-1 {
        fill: #fff;
        fill-rule: evenodd;
      }
    </style>
  </defs><symbol id="dr" viewBox="0 0 12.375 12.38">
  <metadata><?xpacket begin="﻿" id="W5M0MpCehiHzreSzNTczkc9d"?>
<x:xmpmeta xmlns:x="adobe:ns:meta/" x:xmptk="Adobe XMP Core 5.6-c142 79.160924, 2017/07/13-01:06:39        ">
   <rdf:RDF xmlns:rdf="http://www.w3.org/1999/02/22-rdf-syntax-ns#">
      <rdf:Description rdf:about=""/>
   </rdf:RDF>
</x:xmpmeta>
                                                                                                    
                                                                                                    
                                                                                                    
                                                                                                    
                                                                                                    
                                                                                                    
                                                                                                    
                                                                                                    
                                                                                                    
                                                                                                    
                                                                                                    
                                                                                                    
                                                                                                    
                                                                                                    
                                                                                                    
                                                                                                    
                                                                                                    
                                                                                                    
                                                                                                    
                                                                                                    
                           
<?xpacket end="w"?></metadata>

  <path id="Dr" class="cls-1" d="M779.5,2260.68a6.18,6.18,0,1,1,6.18-6.18,6.184,6.184,0,0,1-6.18,6.18m5.213-5.34a7.821,7.821,0,0,0-3.289-.22,22.361,22.361,0,0,1,1.023,3.76,5.271,5.271,0,0,0,2.266-3.54m-3.147,4.03a22.682,22.682,0,0,0-1.13-4.01,0.038,0.038,0,0,1-.022.01,7.271,7.271,0,0,0-4.156,3.3,5.267,5.267,0,0,0,5.308.7m-5.99-1.33a8.372,8.372,0,0,1,4.293-3.49c0.067-.02.135-0.04,0.209-0.06q-0.2-.45-0.428-0.9a19.382,19.382,0,0,1-5.429.76c0,0.05,0,.1,0,0.16a5.293,5.293,0,0,0,1.357,3.53m-1.246-4.61a19.833,19.833,0,0,0,4.885-.65,34.273,34.273,0,0,0-1.959-3.05,5.31,5.31,0,0,0-2.926,3.7m3.932-4.05a26.653,26.653,0,0,1,1.972,3.09,6.037,6.037,0,0,0,2.766-1.91,5.25,5.25,0,0,0-3.5-1.33,5.045,5.045,0,0,0-1.238.15m5.324,1.79a7.053,7.053,0,0,1-2.947,2.08c0.123,0.25.242,0.51,0.351,0.76,0.039,0.1.074,0.19,0.113,0.28a12.247,12.247,0,0,1,3.676.17,5.252,5.252,0,0,0-1.193-3.29" transform="translate(-773.313 -2248.31)"/>
</symbol><symbol id="fb" viewBox="0 0 5.75 12.38">
  <metadata><?xpacket begin="﻿" id="W5M0MpCehiHzreSzNTczkc9d"?>
<x:xmpmeta xmlns:x="adobe:ns:meta/" x:xmptk="Adobe XMP Core 5.6-c142 79.160924, 2017/07/13-01:06:39        ">
   <rdf:RDF xmlns:rdf="http://www.w3.org/1999/02/22-rdf-syntax-ns#">
      <rdf:Description rdf:about=""/>
   </rdf:RDF>
</x:xmpmeta>
                                                                                                    
                                                                                                    
                                                                                                    
                                                                                                    
                                                                                                    
                                                                                                    
                                                                                                    
                                                                                                    
                                                                                                    
                                                                                                    
                                                                                                    
                                                                                                    
                                                                                                    
                                                                                                    
                                                                                                    
                                                                                                    
                                                                                                    
                                                                                                    
                                                                                                    
                                                                                                    
                           
<?xpacket end="w"?></metadata>

  <path id="Fb" class="cls-1" d="M681.473,2260.68h-2.317v-6.18h-1.545v-2.13h1.545l0-1.26c0-1.73.471-2.79,2.518-2.79h1.7v2.13h-1.066c-0.8,0-.832.3-0.832,0.86l-0.006,1.06h1.916l-0.227,2.13h-1.685Z" transform="translate(-677.625 -2248.31)"/>
</symbol><symbol id="tw" viewBox="0 0 12.375 10.06">
  <metadata><?xpacket begin="﻿" id="W5M0MpCehiHzreSzNTczkc9d"?>
<x:xmpmeta xmlns:x="adobe:ns:meta/" x:xmptk="Adobe XMP Core 5.6-c142 79.160924, 2017/07/13-01:06:39        ">
   <rdf:RDF xmlns:rdf="http://www.w3.org/1999/02/22-rdf-syntax-ns#">
      <rdf:Description rdf:about=""/>
   </rdf:RDF>
</x:xmpmeta>
                                                                                                    
                                                                                                    
                                                                                                    
                                                                                                    
                                                                                                    
                                                                                                    
                                                                                                    
                                                                                                    
                                                                                                    
                                                                                                    
                                                                                                    
                                                                                                    
                                                                                                    
                                                                                                    
                                                                                                    
                                                                                                    
                                                                                                    
                                                                                                    
                                                                                                    
                                                                                                    
                           
<?xpacket end="w"?></metadata>

  <path id="Tw" class="cls-1" d="M736.683,2251.66a5.149,5.149,0,0,1-1.457.41,2.593,2.593,0,0,0,1.115-1.41,5.252,5.252,0,0,1-1.612.62,2.5,2.5,0,0,0-1.851-.8,2.531,2.531,0,0,0-2.535,2.53,2.65,2.65,0,0,0,.064.58,7.184,7.184,0,0,1-5.224-2.65,2.509,2.509,0,0,0-.346,1.27,2.558,2.558,0,0,0,1.127,2.12,2.5,2.5,0,0,1-1.149-.32v0.03a2.547,2.547,0,0,0,2.034,2.49,2.454,2.454,0,0,1-.668.09,3.742,3.742,0,0,1-.477-0.04,2.525,2.525,0,0,0,2.371,1.75,5.1,5.1,0,0,1-3.148,1.09,4.069,4.069,0,0,1-.61-0.04,7.212,7.212,0,0,0,11.1-6.07c0-.11,0-0.22-0.006-0.33a5.167,5.167,0,0,0,1.268-1.32" transform="translate(-724.313 -2250.47)"/>
</symbol></svg>