<svg xmlns="http://www.w3.org/2000/svg" width="12.375" height="10.06" viewBox="0 0 12.375 10.06"><path d="M12.37 1.19a5.149 5.149 0 0 1-1.457.41A2.593 2.593 0 0 0 12.028.19a5.252 5.252 0 0 1-1.612.62 2.5 2.5 0 0 0-1.851-.8A2.531 2.531 0 0 0 6.03 2.54a2.65 2.65 0 0 0 .064.58A7.184 7.184 0 0 1 .87.47a2.509 2.509 0 0 0-.346 1.27 2.558 2.558 0 0 0 1.127 2.12 2.5 2.5 0 0 1-1.149-.32v.03a2.547 2.547 0 0 0 2.034 2.49 2.454 2.454 0 0 1-.668.09 3.742 3.742 0 0 1-.477-.04 2.525 2.525 0 0 0 2.371 1.75A5.1 5.1 0 0 1 .614 8.95a4.069 4.069 0 0 1-.61-.04 7.212 7.212 0 0 0 11.1-6.07c0-.11 0-.22-.006-.33a5.167 5.167 0 0 0 1.268-1.32" fill="#fff" fill-rule="evenodd"/></svg>